<svg width="135" height="76" viewBox="0 0 135 76" fill="none" xmlns="http://www.w3.org/2000/svg">
<path d="M9.66687 59.128V26.752H22.019C25.2413 26.752 27.658 27.512 29.4482 28.956C31.2383 30.4 32.0439 32.452 32.0439 35.112C32.0439 36.86 31.6859 38.38 30.9698 39.52C30.2538 40.736 29.2692 41.648 28.0161 42.256C26.7629 42.864 25.4203 43.168 23.9882 43.168L24.7042 42.028C26.4944 42.028 28.1056 42.332 29.4482 42.94C30.7908 43.548 31.7754 44.536 32.4915 45.752C33.2075 46.968 33.5656 48.564 33.5656 50.388C33.5656 53.124 32.6705 55.252 30.8803 56.772C29.0902 58.292 26.4049 59.052 22.8246 59.052L9.66687 59.128ZM12.7101 56.316H22.8246C25.3308 56.316 27.2105 55.86 28.5531 54.872C29.8957 53.884 30.5223 52.364 30.5223 50.236C30.5223 48.108 29.8062 46.588 28.5531 45.676C27.2105 44.688 25.3308 44.232 22.8246 44.232H12.3521V41.42H21.7505C23.9882 41.42 25.7783 40.888 27.121 39.9C28.4636 38.912 29.0006 37.468 29.0006 35.492C29.0006 33.516 28.3741 32.072 27.121 31.084C25.8679 30.096 24.0777 29.64 21.7505 29.64H12.7101V56.316Z" fill="#003547"/>
<path d="M52.9889 59.432C50.8407 59.432 48.8715 59.052 46.9918 58.216C45.1121 57.38 43.501 56.24 42.1584 54.72C40.8157 53.2 39.7416 51.452 39.0256 49.476C38.3095 47.5 37.9515 45.296 37.9515 42.94C37.9515 40.584 38.3095 38.38 39.0256 36.404C39.7416 34.428 40.8157 32.68 42.1584 31.16C43.501 29.64 45.1121 28.5 46.9023 27.664C48.6925 26.828 50.7511 26.448 52.8993 26.448C55.0475 26.448 57.0167 26.828 58.8964 27.664C60.6866 28.5 62.2977 29.64 63.6403 31.084C64.983 32.604 66.0571 34.276 66.7731 36.328C67.4892 38.304 67.8472 40.508 67.8472 42.864C67.8472 45.22 67.4892 47.424 66.7731 49.4C66.0571 51.376 64.983 53.124 63.6403 54.644C62.2977 56.088 60.6866 57.304 58.8964 58.064C57.1062 58.976 55.0475 59.432 52.9889 59.432ZM52.9889 56.316C54.6895 56.316 56.3007 56.012 57.7328 55.328C59.1649 54.644 60.418 53.732 61.4921 52.516C62.5662 51.3 63.3718 49.856 63.9984 48.26C64.6249 46.664 64.8934 44.84 64.8934 42.94C64.8934 41.04 64.6249 39.216 63.9984 37.62C63.3718 36.024 62.5662 34.58 61.4921 33.364C60.418 32.148 59.1649 31.236 57.7328 30.552C56.3007 29.868 54.6895 29.564 52.9889 29.564C51.2882 29.564 49.6771 29.868 48.2449 30.552C46.8128 31.236 45.4702 32.148 44.3961 33.364C43.322 34.58 42.4269 36.024 41.8898 37.62C41.3528 39.216 40.9948 41.04 40.9948 42.94C40.9948 44.84 41.2633 46.588 41.8898 48.26C42.5164 49.932 43.322 51.3 44.3961 52.516C45.4702 53.732 46.7233 54.644 48.2449 55.328C49.7666 56.012 51.1987 56.316 52.9889 56.316Z" fill="#003547"/>
<path d="M87.181 59.432C85.0328 59.432 83.0636 59.052 81.1839 58.216C79.3042 57.38 77.7826 56.24 76.44 54.72C75.0974 53.2 74.0233 51.452 73.3072 49.476C72.5911 47.5 72.2331 45.296 72.2331 42.94C72.2331 40.584 72.5911 38.38 73.3072 36.404C74.0233 34.428 75.0974 32.68 76.44 31.16C77.7826 29.64 79.3937 28.5 81.1839 27.664C82.9741 26.828 85.0328 26.448 87.181 26.448C89.3292 26.448 91.2983 26.828 93.178 27.664C94.9682 28.5 96.5793 29.64 97.922 31.084C99.2646 32.604 100.339 34.276 101.055 36.328C101.771 38.304 102.129 40.508 102.129 42.864C102.129 45.22 101.771 47.424 101.055 49.4C100.339 51.376 99.2646 53.124 97.922 54.644C96.5793 56.088 94.9682 57.304 93.178 58.064C91.2983 58.976 89.3292 59.432 87.181 59.432ZM87.181 56.316C88.8816 56.316 90.4928 56.012 91.9249 55.328C93.357 54.644 94.6101 53.732 95.6842 52.516C96.7583 51.3 97.5639 49.856 98.1905 48.26C98.817 46.664 99.0856 44.84 99.0856 42.94C99.0856 41.04 98.817 39.216 98.1905 37.62C97.5639 36.024 96.7583 34.58 95.6842 33.364C94.6101 32.148 93.357 31.236 91.9249 30.552C90.4928 29.868 88.8816 29.564 87.181 29.564C85.4803 29.564 83.8692 29.868 82.437 30.552C81.0049 31.236 79.6623 32.148 78.5882 33.364C77.5141 34.58 76.619 36.024 76.0819 37.62C75.4554 39.216 75.1869 41.04 75.1869 42.94C75.1869 44.84 75.4554 46.588 76.0819 48.26C76.7085 49.932 77.5141 51.3 78.5882 52.516C79.6623 53.732 80.9154 54.644 82.437 55.328C83.8692 56.012 85.4803 56.316 87.181 56.316Z" fill="#003547"/>
<path d="M108.931 59.128V26.752H111.975V59.128H108.931ZM111.527 51.072L111.438 46.892L128.713 26.752H132.204L119.583 41.724L117.882 43.776L111.527 51.072ZM129.429 59.128L117.077 43.016L119.135 40.508L133.009 59.128H129.429Z" fill="#003547"/>
<path d="M65.6096 44.08C65.4306 43.852 67.3997 41.876 69.9955 41.8C72.7702 41.724 75.0079 43.776 74.8289 44.08C74.7394 44.308 72.8597 43.016 69.9955 43.092C67.3997 43.092 65.7886 44.308 65.6096 44.08Z" fill="#003547"/>
<path d="M56.3901 22.268V16.948H57.3747V22.268H56.3901Z" fill="#634E42"/>
<path d="M62.1187 18.24C62.5662 18.24 62.9242 18.316 63.2823 18.392C63.6403 18.544 63.9088 18.696 64.0878 19C64.2669 19.304 64.3564 19.608 64.3564 19.988V22.268H63.3718V20.064C63.3718 19.684 63.2823 19.38 63.0137 19.152C62.7452 18.924 62.3872 18.848 61.9396 18.848C61.5816 18.848 61.3131 18.924 61.0446 19C60.776 19.076 60.597 19.228 60.418 19.456C60.239 19.684 60.239 19.912 60.239 20.216V22.268H59.2544V18.24H60.1495V19.304L59.9705 19C60.1495 18.696 60.418 18.544 60.776 18.392C61.1341 18.24 61.5816 18.24 62.1187 18.24Z" fill="#634E42"/>
<path d="M75.2763 18.24C75.7239 18.24 76.0819 18.316 76.3504 18.392C76.619 18.468 76.8875 18.696 77.0665 19C77.2455 19.228 77.335 19.608 77.335 19.988V22.268H76.3504V20.064C76.3504 19.684 76.2609 19.38 75.9924 19.152C75.7239 18.924 75.4554 18.848 75.0078 18.848C74.7393 18.848 74.3813 18.924 74.2022 19C74.0232 19.076 73.7547 19.228 73.6652 19.456C73.5757 19.684 73.4862 19.912 73.4862 20.216V22.268H72.5911V20.064C72.5911 19.684 72.5016 19.38 72.2331 19.152C71.9645 18.924 71.696 18.848 71.2485 18.848C70.9799 18.848 70.6219 18.924 70.4429 19C70.2639 19.076 69.9954 19.228 69.9059 19.456C69.8163 19.684 69.7268 19.912 69.7268 20.216V22.268H68.7422V18.24H69.6373V19.304L69.4583 19C69.6373 18.696 69.9059 18.544 70.1744 18.392C70.5324 18.24 70.8904 18.164 71.338 18.164C71.875 18.164 72.2331 18.24 72.5911 18.468C72.9491 18.696 73.2177 18.924 73.3072 19.304L72.9491 19.152C73.1281 18.848 73.3967 18.62 73.7547 18.392C74.1127 18.164 74.7393 18.24 75.2763 18.24Z" fill="#634E42"/>
<path d="M79.3938 23.788C79.1252 23.788 78.8567 23.788 78.6777 23.712C78.4987 23.636 78.2302 23.56 78.0511 23.408L78.4092 22.876C78.5882 22.952 78.6777 23.028 78.8567 23.104C79.0357 23.18 79.2148 23.18 79.3938 23.18C79.6623 23.18 79.8413 23.104 79.9308 23.028C80.0203 22.952 80.1993 22.8 80.3784 22.572L80.7364 22.04L80.8259 21.964L82.8846 18.316H83.7797L81.2734 22.724C81.0944 23.028 80.9154 23.256 80.7364 23.408C80.5574 23.56 80.3784 23.712 80.1098 23.788C79.9308 23.788 79.6623 23.788 79.3938 23.788ZM80.6469 22.42L78.2302 18.24H79.2148L81.2734 21.812L80.6469 22.42Z" fill="#634E42"/>
<path d="M9.21934 27.132H2.32721V58.748H9.21934V27.132Z" stroke="#ED8B16" stroke-miterlimit="10"/>
<path d="M116.909 27.1429H112.342V60.4898L114.625 59.3128L116.909 60.4898V27.1429Z" fill="#ED8B16" stroke="#312783" stroke-miterlimit="10"/>
<path d="M8.32426 28.272H3.22229V28.576H8.32426V28.272Z" fill="white" stroke="#1D1D1B" stroke-width="0.5" stroke-miterlimit="10"/>
<path d="M8.32426 29.564H3.22229V29.868H8.32426V29.564Z" fill="white" stroke="#1D1D1B" stroke-width="0.5" stroke-miterlimit="10"/>
<path d="M8.32426 30.856H3.22229V31.16H8.32426V30.856Z" fill="white" stroke="#1D1D1B" stroke-width="0.5" stroke-miterlimit="10"/>
<path d="M8.32426 32.148H3.22229V32.452H8.32426V32.148Z" fill="white" stroke="#1D1D1B" stroke-width="0.5" stroke-miterlimit="10"/>
<path d="M8.32426 33.44H3.22229V33.744H8.32426V33.44Z" fill="white" stroke="#1D1D1B" stroke-width="0.5" stroke-miterlimit="10"/>
<path d="M8.32426 34.732H3.22229V35.036H8.32426V34.732Z" fill="white" stroke="#1D1D1B" stroke-width="0.5" stroke-miterlimit="10"/>
<path d="M8.32426 36.024H3.22229V36.328H8.32426V36.024Z" fill="white" stroke="#1D1D1B" stroke-width="0.5" stroke-miterlimit="10"/>
<path d="M8.32426 37.316H3.22229V37.62H8.32426V37.316Z" fill="white" stroke="#1D1D1B" stroke-width="0.5" stroke-miterlimit="10"/>
<path d="M8.32426 38.608H3.22229V38.912H8.32426V38.608Z" fill="white" stroke="#1D1D1B" stroke-width="0.5" stroke-miterlimit="10"/>
<path d="M8.32426 39.9H3.22229V40.204H8.32426V39.9Z" fill="white" stroke="#1D1D1B" stroke-width="0.5" stroke-miterlimit="10"/>
<path d="M8.32426 41.192H3.22229V41.496H8.32426V41.192Z" fill="white" stroke="#1D1D1B" stroke-width="0.5" stroke-miterlimit="10"/>
<path d="M8.32426 42.484H3.22229V42.788H8.32426V42.484Z" fill="white" stroke="#1D1D1B" stroke-width="0.5" stroke-miterlimit="10"/>
<path d="M8.32426 43.776H3.22229V44.08H8.32426V43.776Z" fill="white" stroke="#1D1D1B" stroke-width="0.5" stroke-miterlimit="10"/>
<path d="M8.32426 45.068H3.22229V45.372H8.32426V45.068Z" fill="white" stroke="#1D1D1B" stroke-width="0.5" stroke-miterlimit="10"/>
<path d="M8.32426 46.36H3.22229V46.664H8.32426V46.36Z" fill="white" stroke="#1D1D1B" stroke-width="0.5" stroke-miterlimit="10"/>
<path d="M8.32426 47.652H3.22229V47.956H8.32426V47.652Z" fill="white" stroke="#1D1D1B" stroke-width="0.5" stroke-miterlimit="10"/>
<path d="M8.32426 48.944H3.22229V49.248H8.32426V48.944Z" fill="white" stroke="#1D1D1B" stroke-width="0.5" stroke-miterlimit="10"/>
<path d="M8.32426 50.236H3.22229V50.54H8.32426V50.236Z" fill="white" stroke="#1D1D1B" stroke-width="0.5" stroke-miterlimit="10"/>
<path d="M8.32426 51.528H3.22229V51.832H8.32426V51.528Z" fill="white" stroke="#1D1D1B" stroke-width="0.5" stroke-miterlimit="10"/>
<path d="M8.32426 52.82H3.22229V53.124H8.32426V52.82Z" fill="white" stroke="#1D1D1B" stroke-width="0.5" stroke-miterlimit="10"/>
<path d="M8.32426 54.112H3.22229V54.416H8.32426V54.112Z" fill="white" stroke="#1D1D1B" stroke-width="0.5" stroke-miterlimit="10"/>
<path d="M8.32426 55.404H3.22229V55.708H8.32426V55.404Z" fill="white" stroke="#1D1D1B" stroke-width="0.5" stroke-miterlimit="10"/>
<path d="M8.32426 56.696H3.22229V57H8.32426V56.696Z" fill="white" stroke="#1D1D1B" stroke-width="0.5" stroke-miterlimit="10"/>
<path d="M8.32426 57.988H3.22229V58.216H8.32426V57.988Z" fill="white" stroke="#1D1D1B" stroke-width="0.5" stroke-miterlimit="10"/>
</svg>
