<svg width="172" height="190" viewBox="0 0 172 190" fill="none" xmlns="http://www.w3.org/2000/svg">
<path d="M0.273865 186.2H171.274" stroke="black"/>
<path d="M109.32 4.05414C109.32 4.05414 121.808 0.55509 131.868 11.5435C141.965 22.4974 156.689 37.373 153.116 41.3591C149.581 45.3463 148.965 48.7017 154.324 51.4717C159.722 54.2428 162.633 57.7991 155.236 68.5332C150.416 75.5384 148.997 66.0236 133.562 66.0719C118.128 66.1202 106.065 58.663 101.054 62.4687C82.1377 76.7278 82.3547 2.94193 109.32 4.05414Z" fill="#263238"/>
<path d="M104.232 62.0927C104.232 62.0927 68.4607 75.5051 61.4749 75.0988C54.4878 74.6594 8.9519 61.2925 8.9519 61.2925L10.2955 67.5055C10.2955 67.5055 44.1181 84.2801 55.7672 85.464C67.2576 86.644 105.988 78.1633 109.679 76.2731C113.328 74.3157 115.25 64.3843 104.232 62.0927Z" fill="#ED985F"/>
<path d="M101.809 74.2179C105.168 76.4054 109.365 78.2599 114.584 79.5018C134.171 84.1509 141.098 69.2291 143.554 58.9151C140.838 57.4558 138.353 57.0692 136.917 56.8885C135.521 56.7089 134.01 56.5617 132.809 56.4584C130.552 54.8693 127.083 48.4843 126.042 38.6808L125.122 38.8694L109.914 42.336C109.914 42.336 110.768 46.8379 111.265 51.0814C111.652 54.3977 111.802 57.5655 111.134 58.3296C109.945 58.5465 109.215 58.6691 109.215 58.6691C108.995 58.9831 104.787 65.5887 101.809 74.2179Z" fill="#FFB27D"/>
<path d="M110.189 42.0726C110.189 42.0726 111.047 46.5499 111.547 50.7701C120.267 50.2244 124.041 42.7594 125.487 38.6263L110.189 42.0726Z" fill="#ED985F"/>
<path d="M108.169 45.9813C108.169 45.9813 128.621 45.499 127.322 33.6178C126.022 21.7367 127.776 13.6844 114.636 13.5079C101.496 13.3314 99.4688 17.9508 98.8798 21.9669C98.2895 25.9472 102.825 45.8012 108.169 45.9813Z" fill="#FFB27D"/>
<path d="M98.7928 15.2107C101.598 11.5818 104.128 12.2769 105.612 13.259C116.355 7.21876 124.629 15.2249 124.629 15.2249C127.003 23.5304 134.252 28.0518 134.252 28.0518C134.252 28.0518 130.692 30.2986 121.706 28.5958C118.946 28.0693 116.383 26.4652 114.12 24.4847C118.26 29.658 123.559 33.3249 123.559 33.3249C112.614 29.4051 106.903 16.5062 106.307 15.1633C105.172 16.2512 102.907 18.567 102.398 20.7541C101.723 23.7403 98.4058 28.3686 96.405 28.2463C96.4062 28.2812 94.5655 20.6534 98.7928 15.2107Z" fill="#263238"/>
<path d="M98.9471 74.2395C98.1665 83.4435 99.9368 87.5483 110.795 109.168C119.947 127.439 110.84 143.379 110.84 143.379C110.84 143.379 132.161 159.793 147.27 166.31C155.689 169.951 162.185 170.524 162.021 163.555C161.863 155.689 157.615 145.63 153.997 136.269C150.878 128.215 148.269 120.641 149.187 115.425C150.701 106.636 155.432 71.444 149.089 59.9269C146.825 55.7727 138.397 55.1827 129.235 55.2906C126.415 56.9723 115.763 63.2853 111.224 62.3353C111.186 62.3342 111.071 62.2952 110.957 62.2921C108.817 61.7309 108.776 60.5452 109.712 59.135C109.712 59.135 105.581 59.0577 100.058 60.3422C93.7844 61.8215 87.9474 66.0768 87.9474 66.0768C87.9474 66.0768 92.4513 71.477 98.9471 74.2395Z" fill="#8AA09E"/>
<path d="M107.943 185.091C105.185 184.733 102.654 183.248 101.053 181.081C100.812 180.72 100.532 180.358 100.252 179.961C94.205 171.69 91.0905 146.86 77.2297 120.073C73.8368 113.538 62.4601 112.096 59.1152 104.748C59.1152 104.748 50.6985 80.9768 72.8139 80.8696C94.9675 80.7634 134.455 148.038 135.27 155.034C136.077 161.782 151.16 190.797 107.943 185.091Z" fill="#192125"/>
<path d="M14.4311 185.303L46.9376 186.146C46.9376 186.146 47.9914 181.617 45.7541 178.486C43.7656 175.707 44.416 174.136 45.7509 171.927C44.3137 172.407 42.403 172.841 40.3134 172.683C38.6974 172.573 36.9419 171.871 35.4187 171.072C34.0536 172.452 28.2884 178.24 26.4816 179.367C24.4043 180.625 14.9036 179.93 14.4311 185.303Z" fill="#263238"/>
<path d="M55.9535 87.6669C54.5359 101.052 48.7027 143.252 36.5329 163.61C32.5932 170.159 47.3273 174.31 47.4387 174.277C49.3739 173.826 52.5382 170.927 53.9957 169.671C64.1244 160.918 84.4633 135.927 83.7619 115.429C83.4192 105.414 82.9535 86.3259 75.2026 81.2528C70.4068 78.133 56.4844 82.3549 55.9535 87.6669Z" fill="#192125"/>
<path d="M80.2157 104.407C83.5801 111.71 92.2726 111.066 95.6856 117.561C95.8492 117.847 95.9731 118.097 96.0982 118.382C97.8276 121.736 99.5185 125.088 101.055 128.401C104.329 135.315 109.363 149.769 113.15 161.481C115.73 169.431 117.767 176.1 118.266 178.294C119.074 181.658 120.357 184.296 120.357 184.296C169.247 192.482 162.028 161.611 159.126 154.356C156.476 147.741 111.69 78.8771 89.4262 78.9767C67.1994 79.0421 80.2157 104.407 80.2157 104.407Z" fill="#263238"/>
<path d="M38.7111 185.303L71.2176 186.146C71.2176 186.146 72.2714 181.617 70.0341 178.486C68.0456 175.707 68.696 174.136 70.0309 171.927C68.5937 172.407 66.683 172.841 64.5934 172.683C62.9774 172.573 61.2219 171.871 59.6987 171.072C58.3336 172.452 52.5684 178.24 50.7616 179.367C48.6449 180.624 39.1836 179.93 38.7111 185.303Z" fill="#141B1E"/>
<path d="M96.1377 119.251C97.7872 122.695 99.4001 126.139 100.866 129.542C103.989 136.643 108.796 151.491 112.413 163.522C112.451 163.559 112.454 163.632 112.491 163.669C123.899 145.447 105.391 109.788 105.391 109.788C101.358 111.518 98.2946 114.938 96.1377 119.251Z" fill="#141B1E"/>
<path d="M75.4928 86.5727C74.0747 99.9568 72.93 143.254 60.7542 163.574C56.813 170.123 71.5526 174.273 71.6641 174.24C73.6 173.79 76.7655 170.89 78.2236 169.635C88.3562 160.882 108.703 135.894 108.001 115.397C107.659 105.383 94.7871 86.7461 87.0345 81.7095C82.2757 78.6271 76.0616 81.2623 75.4928 86.5727Z" fill="#263238"/>
<path d="M3.42121 45.0778L9.59294 34.2165L15.2468 47.7317L47.1986 74.6805L17.1237 79.657L3.42121 45.0778Z" fill="#E0400F"/>
<path d="M40.2408 53.5821L53.6919 87.9187L16.8134 79.723L3.0119 45.3421L40.2408 53.5821Z" fill="#E0400F"/>
<path d="M39.6735 52.0864L4.52041 44.8656L3.0303 45.2858L39.4537 52.5362L39.6735 52.0864Z" fill="#FCECDB"/>
<path d="M39.6835 52.036L40.0919 52.6514L39.4705 52.5288L39.6835 52.036Z" fill="#EAC5A4"/>
<path d="M3.39155 45.0761L10.1465 34.7834L15.2519 47.0232L4.83895 44.6153L3.39155 45.0761Z" fill="#EFDECE"/>
<path d="M30.0094 58.6231C31.1908 58.4537 33.6969 57.7206 36.2106 57.1866C35.4389 56.6697 34.5446 56.0501 34.2831 55.4133C33.7625 54.206 33.4701 53.8006 34.9897 54.2037C36.5106 54.6399 41.9366 56.7997 41.9366 56.7997C44.9758 57.6058 47.9245 61.2624 47.9245 61.2624C47.9245 61.2624 85.8683 73.2615 90.3934 73.5742C97.3791 74.0482 143.322 60.8721 143.322 60.8721C154.375 63.1732 152.344 74.4005 148.616 76.3303C144.926 78.2279 111.864 87.5812 92.0578 87.2827C82.0357 87.1305 44.7587 66.5567 44.7587 66.5567C44.7587 66.5567 40.4176 64.8222 37.1076 65.2367C33.758 65.6501 25.9722 64.957 24.2216 62.6242C22.4709 60.2913 28.0406 58.9053 30.0094 58.6231Z" fill="#FFB27D"/>
<path d="M120.434 65.7769C120.434 65.7769 124.951 77.5711 139.1 80.6176C139.1 80.6176 162.096 74.7904 150.03 60.1944C150.03 60.1944 138.319 52.254 120.434 65.7769Z" fill="#8AA09E"/>
<path d="M5.53864 59.8083C5.52759 59.4836 5.55384 59.16 5.61738 58.8374C5.61738 58.8374 8.62299 54.0914 9.65988 53.904C12.8091 53.3788 12.9465 57.4193 12.3636 59.9981C11.9774 61.7895 11.3584 64.4033 10.4207 65.3143L11.8946 69.2118C5.35423 66.4349 5.53864 59.8083 5.53864 59.8083Z" fill="#FFB27D"/>
<path d="M147.199 166.311C155.636 169.95 162.145 170.523 161.98 163.559C161.822 155.699 157.566 145.646 153.941 136.292C153.941 136.292 149.522 139.112 139.564 132.096C131.745 126.573 142.345 154.341 147.199 166.311Z" fill="#303F46"/>
</svg>
