<svg width="193" height="239" viewBox="0 0 193 239" fill="none" xmlns="http://www.w3.org/2000/svg">
<path d="M39.0239 237.765L192.024 237.765" stroke="black"/>
<path d="M71.9986 61.5638C71.9986 61.5638 71.1066 59.737 70.5529 58.8938C69.9991 58.0506 67.5382 55.5211 67.1075 56.0832C66.6769 56.6453 65.0157 60.4958 65.9078 61.5638C66.7999 62.6319 65.8463 64.515 70.2452 65.6392L71.9986 61.5638Z" fill="#FFB27D"/>
<path d="M120.849 50.0967C120.849 50.0967 98.3616 67.2413 89.5945 65.6674C82.7346 64.4308 72.214 61.1143 72.214 61.1143L70.1222 66.0328C70.1222 66.0328 79.5661 77.7249 89.4099 77.8092C104.791 77.9216 116.173 71.7102 116.173 71.7102L120.849 50.0967Z" fill="#263238"/>
<path d="M160.111 228.125C160.111 228.125 159.473 237.462 157.468 237.599C157.195 237.626 147.259 237.626 147.259 237.626L134.559 237.572C134.559 237.572 134.651 234.814 138.357 234.241C142.064 233.667 148.262 231.319 150.51 226.923C152.88 222.254 160.111 228.125 160.111 228.125Z" fill="#050609"/>
<path d="M161.024 228.966C161.024 228.966 157.098 230.122 154.037 230.122C150.606 230.122 147.515 229.297 147.515 229.297C147.515 229.297 146.773 222.938 142.723 208.9C140.59 201.551 137.561 192.109 133.202 180.356C121.239 147.903 117.592 128.91 117.252 127.121C117.221 127.038 117.221 126.983 117.221 126.983L117.252 126.956L154.068 112.56C154.068 112.56 149.524 157.289 155.336 174.438C156.139 176.832 156.85 179.64 157.438 182.668C161.116 201.358 161.024 228.966 161.024 228.966Z" fill="#235752"/>
<path d="M142.782 211.256C140.659 203.752 137.645 194.112 133.307 182.11C121.402 148.973 117.772 129.58 117.434 127.753C117.434 127.697 117.434 127.641 117.434 127.585L154.071 112.885C154.071 112.885 149.549 158.558 155.333 176.068C156.163 178.541 142.782 211.256 142.782 211.256Z" fill="#19403C"/>
<path d="M131.822 228.125C131.822 228.125 131.161 237.462 129.084 237.599C128.801 237.626 118.511 237.626 118.511 237.626L105.357 237.572C105.357 237.572 105.452 234.814 109.291 234.241C113.13 233.667 119.549 231.319 121.878 226.923C124.301 222.254 131.822 228.125 131.822 228.125Z" fill="#050609"/>
<path d="M110.842 114.227C110.842 114.227 110.378 143.046 116.013 178.434C121.648 213.821 119.729 228.847 119.729 228.847C119.729 228.847 123.599 229.969 125.178 230.078C129.172 230.352 133.26 229.257 133.26 229.257C133.26 229.257 141.341 193.87 139.019 176.162C136.697 158.455 150.073 115.404 150.073 115.404L110.842 114.227Z" fill="#235752"/>
<path d="M136.876 44.7284L129.708 49.0005L123.187 47.3142C121.987 45.7683 121.679 42.761 121.648 40.1753C121.618 37.5895 121.894 35.4253 121.894 35.4253L131.554 31.5467L135.153 30.0852C135.153 30.1414 134.876 32.7834 134.845 33.1769C134.199 40.0628 136.876 44.7284 136.876 44.7284Z" fill="#FFB27D"/>
<path d="M110.728 122.216C119.618 130.058 153.333 128.737 155.394 120.109C157.455 111.452 153.118 46.4428 137.921 42.3675C134.753 41.5243 117.895 46.499 117.895 46.499C117.895 46.499 115.25 52.8229 113.527 60.8893C113.189 62.4632 112.204 79.0738 111.466 94.6164C111.128 101.896 110.82 108.922 110.697 114.066C110.543 118.872 110.543 122.048 110.728 122.216Z" fill="#303F46"/>
<path d="M134.138 33.3174C132.169 36.3529 125.309 38.9948 121.679 40.2034C121.648 37.6176 121.925 35.4535 121.925 35.4535L131.584 31.5749C133.707 31.5187 135.03 31.9683 134.138 33.3174Z" fill="#FCA56B"/>
<path d="M118.712 34.4964C118.712 34.4964 137.912 39.9371 141.486 29.0214C145.022 18.1401 149.889 11.4942 137.798 7.56872C125.67 3.6432 121.944 7.1555 119.776 10.5301C117.571 13.9046 113.807 32.7747 118.712 34.4964Z" fill="#FFB27D"/>
<path d="M120.829 9.60722C120.829 9.60722 122.027 22.2747 124.875 21.7239C127.722 21.1732 130.87 20.0028 130.458 23.8237C130.045 27.6446 133.23 34.1848 137.351 34.1848C146.156 34.1504 155.748 13.3593 153.35 9.40069C146.381 -1.99313 110.75 -4.29944 120.829 9.60722Z" fill="#263238"/>
<path d="M122.048 42.5643C122.264 42.48 133.615 37.8144 134.968 38.236C136.322 38.6576 137.952 42.3394 137.952 42.3394L117.926 46.471C117.895 46.4991 119.464 43.548 122.048 42.5643Z" fill="#263238"/>
<path d="M59.5268 86.813L101.737 126.298C102.572 127.067 103.61 127.31 104.058 126.845L105.484 125.347C105.932 124.882 105.626 123.849 104.791 123.08L62.5811 83.5951C61.7463 82.826 60.7079 82.5832 60.2599 83.0486L58.8346 84.5463C58.3866 85.0118 58.692 86.0237 59.5268 86.813Z" fill="#E0400F"/>
<path d="M85.2669 110.542L102.099 126.366C102.858 127.069 103.801 127.29 104.208 126.865L105.503 125.497C105.909 125.072 105.632 124.129 104.874 123.427L88.0415 107.603L85.2669 110.542Z" fill="#8E2C0E"/>
<path d="M62.3264 35.6887C48.6809 21.242 25.8719 20.5341 11.3832 34.14C11.1836 34.317 11.0061 34.494 10.8064 34.6931C-3.14975 48.3433 -3.63788 70.688 9.80792 84.9577C23.4534 99.4043 46.2625 100.112 60.7511 86.5063C65.4993 82.0595 68.7609 76.6171 70.5359 70.8208C74.1969 58.8962 71.5122 45.423 62.3264 35.6887ZM58.8208 84.4267C50.3894 92.3469 38.8961 95.0017 28.4013 92.5239C22.2997 91.0859 16.5308 87.9001 11.8936 82.9887C-0.664711 69.6703 -0.0212601 48.7194 13.3136 36.1975C18.2393 31.5958 24.1856 28.764 30.376 27.68C41.0039 25.8437 52.2976 29.2065 60.2408 37.6134C72.8213 50.9539 72.1778 71.9048 58.8208 84.4267Z" fill="#E0400F"/>
<g opacity="0.5">
<path d="M11.8936 83.0107C16.5086 87.9221 22.2775 91.0857 28.4013 92.5459C38.8961 95.0237 50.3894 92.3689 58.8207 84.4487C72.1778 71.9268 72.8212 50.9759 60.2408 37.6575C52.2975 29.2506 40.9817 25.8878 30.376 27.7241C24.1856 28.786 18.2393 31.6178 13.3136 36.2195C-0.0212705 48.7414 -0.664722 69.6923 11.8936 83.0107Z" fill="#FFE3DF"/>
</g>
<path d="M110.666 114.038C145.796 91.1595 142.874 60.6364 142.874 60.6364C130.046 67.2413 117.28 81.8845 111.435 94.5884C111.128 101.868 110.82 108.894 110.666 114.038Z" fill="#263238"/>
<path d="M75.9976 103.639C73.5059 103.105 71.8448 101.418 71.5064 101.109C71.5064 101.109 70.4605 101.165 71.691 103.245C71.7833 103.414 72.0294 103.863 72.1832 104.173C72.2447 104.313 72.1524 104.454 71.9986 104.454C70.5835 104.566 69.1378 104.032 66.3692 104.566C66 104.65 65.877 105.466 65.9078 105.831C65.9385 106.421 65.877 107.096 66.646 108.023C67.0767 108.557 68.3379 109.147 71.0757 110.159C72.1216 110.553 75.1363 110.244 77.9357 109.372L80.1813 108.417L79.4738 104.594L78.92 104.707C78.0587 104.847 76.9513 103.835 75.9976 103.639Z" fill="#FFB27D"/>
<path d="M131.984 46.4993C131.984 46.4993 163.546 51.9799 122.694 93.7454C116.173 100.435 80.8581 109.119 80.8581 109.119C80.8581 109.119 77.2897 106.337 79.0739 104.088C79.0739 104.088 103.376 87.9556 108.728 85.3979C111.128 84.2456 118.08 59.6529 121.987 53.7506C125.924 47.8203 131.984 46.4993 131.984 46.4993Z" fill="#303F46"/>
<path d="M71.1373 62.0698C71.1373 62.0698 70.0914 60.271 69.9068 59.3154C69.6915 58.3598 68.3995 55.5773 67.8766 55.0995C67.6612 54.9028 66.9537 55.1558 66.8614 55.9989C66.8307 56.3643 67.0152 57.0389 67.3536 57.8258C67.9073 59.1187 67.815 60.8612 68.0304 61.4515C68.5226 62.8849 71.1373 62.0698 71.1373 62.0698Z" fill="#FFB27D"/>
</svg>
