<svg width="196" height="236" viewBox="0 0 196 236" fill="none" xmlns="http://www.w3.org/2000/svg">
<path d="M58.822 150.17H89.3548C91.4681 148.785 95.4395 145.778 99.2288 140.643C99.9575 139.663 100.686 138.582 101.378 137.433C105.313 131.015 69.0603 145.879 58.822 150.17Z" fill="#1A2226"/>
<path d="M77.6226 213.174C76.821 214.053 76.7118 215.033 77.1125 216.08C77.8777 218.005 80.3917 220.168 83.3066 222.296C83.6709 222.566 83.9988 222.836 84.2903 223.039C84.3632 223.107 84.436 223.174 84.5089 223.208C84.5818 223.242 84.6182 223.309 84.6911 223.343C87.4237 225.64 86.4035 226.181 91.2859 230.843C96.8605 236.147 100.686 236.214 101.743 235.741C102.654 235.336 100.759 232.498 98.6823 229.323C98.5729 229.154 98.5001 229.019 98.3907 228.85C98.0993 228.444 97.8442 228.005 97.5528 227.566C95.1116 223.748 95.6946 221.958 96.2411 216.249C96.6783 211.62 103.82 190.303 103.82 190.303L93.1805 188.682C93.1805 188.682 90.12 205.641 86.6222 208.276C84.764 209.661 82.6507 209.695 80.8289 210.742C80.7196 210.81 80.5739 210.877 80.4646 210.979C79.5173 211.654 78.4606 212.296 77.6226 213.174Z" fill="#FFB27D"/>
<path d="M77.6226 213.175C76.821 214.053 76.7117 215.033 77.1125 216.08C78.0598 218.005 80.501 220.134 83.3065 222.262C83.6709 222.532 83.9988 222.803 84.2903 223.039C84.3631 223.107 84.436 223.174 84.5089 223.208C84.5817 223.242 84.6182 223.309 84.6911 223.343C87.4237 225.64 86.4035 226.181 91.2858 230.843C96.8604 236.147 100.686 236.214 101.743 235.742C102.654 235.336 100.759 232.498 98.6822 229.323C97.5892 228.951 92.5976 227.127 88.7718 222.634C85.4198 218.715 83.1608 213.648 80.8653 210.742C80.756 210.81 80.6103 210.877 80.501 210.979C79.5172 211.654 78.4606 212.296 77.6226 213.175Z" fill="#503B30"/>
<path d="M163.173 206.485C163.865 209.526 168.529 208.985 173.739 207.769C178.949 206.553 177.711 207.972 185.143 207.161C192.576 206.35 194.799 203.783 195.017 202.736C195.199 201.823 191.556 201.519 187.621 201.148C187.111 201.114 186.637 201.046 186.127 200.979C181.682 200.506 178.403 197.871 174.358 195.709C170.533 193.682 164.74 185.27 164.74 185.27L154.574 186.081C154.574 186.081 159.966 193.58 162.08 196.824C163.319 198.749 163.282 201.283 163.136 203.242C162.991 204.323 162.918 205.404 163.173 206.485Z" fill="#FFB27D"/>
<path d="M173.703 207.769C178.913 206.553 177.674 207.972 185.107 207.161C192.54 206.35 194.762 203.783 194.981 202.736C195.163 201.823 191.52 201.519 187.585 201.148L187.548 201.215C187.548 201.215 183.103 204.188 176.945 204.357C171.917 204.492 166.561 203.209 163.1 203.276C163.027 204.357 162.954 205.438 163.209 206.519C163.829 209.526 168.492 208.985 173.703 207.769Z" fill="#503B30"/>
<path d="M89.1362 197.905C89.1362 197.905 89.8285 198.344 90.9215 198.884C92.1968 199.526 93.9457 200.337 95.5488 200.742C97.2977 201.182 99.0466 201.317 100.322 201.317C101.415 201.317 102.144 201.249 102.144 201.249L114.349 170.169L116.536 164.561L118.867 158.581L119.669 156.487L123.64 146.352C123.64 146.352 113.949 123.278 104.038 134.291C102.836 135.643 101.706 137.568 100.65 139.967C99.9211 141.589 99.2288 143.447 98.5729 145.44C98.0993 146.926 97.6257 148.514 97.152 150.169C95.9132 154.663 94.8201 159.595 93.8728 164.561C90.7394 181.148 89.1362 197.905 89.1362 197.905Z" fill="#1A2226"/>
<path d="M24.0262 147.433C24.5728 148.717 25.5565 149.629 26.8318 150.17H71.8294C82.6507 148.109 92.9983 143.514 99.2288 140.643C99.7389 140.406 100.213 140.17 100.686 139.967C102.799 138.987 104.257 138.312 104.876 138.21C108.629 137.467 110.56 143.177 113.766 150.17C114.422 151.588 115.115 153.075 115.88 154.561C116.426 155.609 117.483 156.994 118.904 158.581C119.159 158.886 119.45 159.19 119.705 159.494C130.636 171.351 158.801 193.412 158.801 193.412C158.801 193.412 159.129 193.412 159.675 193.412C161.387 193.378 165.25 193.243 167.071 192.567C168.128 192.195 168.93 191.756 169.476 191.418C170.278 190.878 170.606 190.473 170.606 190.473C170.606 190.473 136.903 129.359 119.45 112.738C119.195 112.502 118.94 112.265 118.685 112.062C116.791 110.34 115.078 109.191 113.694 108.786C107.755 107.063 69.279 108.988 69.279 108.988L68.0401 107.13L65.9998 106.995L65.6354 106.961L63.9229 106.86L61.5546 106.691L58.0568 106.455L48.5472 105.813L47.0169 105.711L29.4551 104.563C29.4551 104.563 28.6535 106.252 27.5605 109.022C27.1233 110.103 26.686 111.353 26.2123 112.738C23.0789 121.792 19.4354 136.656 24.0262 147.433Z" fill="#263238"/>
<path d="M12.3669 43.7873C21.1478 36.828 27.4147 35.1051 28.2892 24.1256C28.7628 18.1461 37.398 -1.61691 52.045 0.106013C53.2838 0.241144 54.4862 0.342485 55.725 0.308702C57.4374 0.241136 60.243 0.443835 63.1578 2.03163C70.1898 5.84909 83.1608 41.2198 74.4163 53.6519C72.8496 55.8815 70.5906 57.368 67.4572 57.8072C67.0928 58.0098 66.7284 58.1788 66.3277 58.3815C64.7609 59.1923 63.012 60.1044 61.1903 61.0503C50.8426 66.4556 37.3251 73.6175 30.366 77.1985C29.9288 77.4012 29.5644 77.6377 29.2001 77.8066C28.3985 78.212 27.7062 78.5836 27.1961 78.8539C26.3945 79.2593 25.9208 79.4958 25.8844 79.4958C25.8844 79.4958 24.0991 80.1376 21.5851 80.6106C18.0873 81.2862 13.2049 81.6579 9.81644 79.5971C8.46833 78.7863 7.19311 77.7728 6.10004 76.5904C-0.931976 69.3609 -2.79019 55.814 12.3669 43.7873Z" fill="#503B30"/>
<path d="M55.9072 51.8951C55.98 51.9289 49.1666 54.1248 44.5758 52.3005C40.2764 50.5776 36.9608 44.0575 37.0337 44.0575C39.0012 43.9562 41.1144 42.3684 42.6812 31.9633L43.5191 32.2335L57.5468 36.7942C57.5468 36.7942 56.563 40.9495 55.9436 44.9359C55.4335 48.2466 55.142 51.456 55.9072 51.8951Z" fill="#FFB27D"/>
<path d="M57.5468 36.7942C57.5468 36.7942 56.9638 39.6995 56.1258 43.8886C48.0736 42.6049 44.6851 36.2537 43.5556 32.2335L57.5468 36.7942Z" fill="#ED975D"/>
<path d="M59.66 40.9157C59.66 40.9157 40.5315 38.6522 42.2075 27.639C43.92 16.6258 42.5719 8.88952 54.887 9.86923C67.1657 10.8489 68.9146 15.3758 69.3154 19.1595C69.6798 22.977 64.6881 41.2197 59.66 40.9157Z" fill="#FFB27D"/>
<path d="M68.5503 13.1124C68.5503 13.1124 56.3808 22.9769 48.0736 23.8215C39.7663 24.6661 36.5964 22.1999 36.5964 22.1999C36.5964 22.1999 41.4788 18.3825 44.3936 12.2678C45.268 10.4773 47.0898 9.22732 49.203 9.02462C55.1056 8.55166 66.3641 8.24762 68.5503 13.1124Z" fill="#503B30"/>
<path d="M60.8988 12.3016C60.8988 12.3016 65.016 15.9502 66.3276 18.6528C67.6029 21.2879 68.0037 27.5377 67.0563 30.0714C67.0563 30.0714 73.3597 18.5177 69.6797 12.9773C65.8176 7.06529 60.8988 12.3016 60.8988 12.3016Z" fill="#503B30"/>
<path d="M72.2302 77.908C71.9387 113.785 72.3031 106.286 68.0766 109.731C67.0564 110.542 64.2144 111.049 60.4252 111.319C48.5472 112.13 27.6698 110.441 26.8682 108.414C24.0627 101.387 25.9938 99.1912 23.6255 88.4483C23.3704 87.2996 23.0789 86.0497 22.7146 84.7321C20.7471 77.3337 18.8889 74.8338 25.5565 62.9084C31.6048 52.0979 37.9081 43.3143 38.4911 43.6184C54.7048 52.4019 55.9801 44.9359 55.9801 44.9359C55.9801 44.9359 72.376 60.4085 72.2302 77.908Z" fill="#2F736C"/>
<path d="M89.1362 197.905C89.1362 197.905 89.8285 198.344 90.9215 198.884C92.1968 199.526 93.9457 200.337 95.5488 200.742C97.2977 201.182 99.0466 201.317 100.322 201.317C101.415 201.317 102.144 201.249 102.144 201.249L114.349 170.169L110.779 164.561L101.634 150.169L98.6458 145.44C98.1722 146.926 97.6985 148.514 97.2248 150.169C95.986 154.663 94.893 159.595 93.9457 164.561C90.7394 181.148 89.1362 197.905 89.1362 197.905Z" fill="#263238"/>
<path d="M55.9436 44.9359C55.9436 44.9359 72.5946 47.4358 74.5985 54.0572C76.6024 60.6787 88.4075 99.6303 88.4075 99.6303C88.4075 99.6303 79.9545 101.083 76.0195 97.502C72.0845 93.921 62.1741 63.9894 62.1741 63.9894L55.9436 44.9359Z" fill="#2F736C"/>
<path d="M60.4252 111.319C48.5472 112.13 27.6698 110.441 26.8682 108.414C24.0627 101.387 25.9938 99.1912 23.6255 88.4482L29.2365 73.4486C29.2365 73.4486 28.435 90.1036 33.7545 94.4278C39.0741 98.7858 55.5064 102.738 58.0933 106.387C59.3321 108.177 60.1701 109.934 60.4252 111.319Z" fill="#245A55"/>
<path d="M46.7619 104.428C46.7619 104.428 58.4577 101.928 60.3523 102.874C62.247 103.819 66.9107 107.299 67.4936 108.515C68.0766 109.731 63.2671 107.603 61.7368 107.232C60.7167 106.995 58.0933 107.873 56.7816 108.279C51.2799 110.036 47.8914 109.157 47.8914 109.157L46.7619 104.428Z" fill="#FFB27D"/>
<path d="M38.4546 43.6183C38.4546 43.6183 22.751 44.6318 17.3586 51.6924C9.78002 61.6583 -5.08563 103.988 3.65885 109.562C13.5328 115.846 48.3286 110.914 48.3286 110.914C48.3286 110.914 49.4581 105.88 47.8185 103.448C46.1789 101.015 19.9455 97.2655 18.7431 96.1507C17.5407 95.0358 33.6816 74.1918 33.6816 70.8135C33.6087 67.469 38.4546 43.6183 38.4546 43.6183Z" fill="#2F736C"/>
<path d="M60.9353 105.88C60.9353 105.88 63.4129 108.786 64.2144 109.157C65.016 109.495 65.5261 109.427 65.5261 109.427L63.8501 106.691L60.9353 105.88Z" fill="#FFB27D"/>
<path d="M60.3523 102.873L67.4936 106.049C67.4936 106.049 67.2021 106.522 66.3276 106.488C65.4532 106.454 63.2306 105.711 63.2306 105.711L60.3523 102.873Z" fill="#FFB27D"/>
<path d="M62.6841 112.265L119.122 111.894L135.773 72.6378L79.4444 73.0094L62.6841 112.265Z" fill="#E0400F"/>
<path d="M119.778 110.373L45.2681 110.846V112.366L119.122 111.893L119.778 110.373Z" fill="#8E2C0E"/>
<path d="M104.731 92.4008C105.131 91.0157 104.293 89.9008 102.799 89.9346C101.306 89.9684 99.7754 91.0832 99.3746 92.4345C98.9738 93.8196 99.8118 94.9345 101.306 94.9007C102.763 94.9007 104.293 93.7858 104.731 92.4008Z" fill="white"/>
</svg>
